<svg width="40" height="42" viewBox="0 0 40 42" fill="none" xmlns="http://www.w3.org/2000/svg">
<path d="M27.4036 14.3564C26.7116 13.8028 25.8811 13.8028 25.3275 13.9412C25.6043 13.5259 26.4347 13.2491 26.7116 13.1107C26.85 13.2491 27.4036 13.8028 27.4036 14.3564ZM29.3413 12.1419C28.9261 9.92733 23.805 11.4498 21.3136 10.481C21.3136 11.173 22.1441 12.1419 22.9745 12.5571C21.5905 13.8028 20.3448 16.1557 20.068 19.0623C19.7911 16.1557 18.5455 13.6644 17.1614 12.5571C17.9918 12.1419 18.8223 11.173 18.8223 10.481C16.1925 11.4498 11.0714 9.92733 10.6562 12.1419C10.5178 12.5571 10.7946 13.2491 11.0714 13.5259C11.0714 13.3875 11.3482 12.8339 12.0403 12.8339C15.6389 12.2803 18.6839 17.8166 15.9157 20.0311V20.1695H24.0818C24.0818 20.1695 24.2202 20.1695 24.0818 20.0311C21.3136 17.8166 24.3586 12.2803 27.9572 12.8339C28.6493 12.9723 28.9261 13.3875 28.9261 13.5259C29.2029 13.2491 29.4797 12.5571 29.3413 12.1419ZM30.1718 7.15916C30.1718 7.02075 32.2479 6.88234 32.2479 8.26643C32.2479 9.09688 31.0022 9.5121 31.0022 10.481C31.0022 10.8962 31.4174 11.173 31.5558 11.173C31.279 9.65051 32.5247 10.481 32.9399 10.7578C32.2479 8.82006 33.9088 8.82006 33.632 7.8512C33.4936 7.15916 32.1095 7.43598 31.5558 7.02075C30.8638 6.46712 29.7565 4.25259 29.0645 6.46712C30.4486 7.71279 29.6181 9.5121 27.9572 9.5121V9.78892C29.895 9.78892 30.587 8.26643 30.1718 7.15916ZM6.91917 10.7578C7.3344 10.481 8.58007 9.65051 8.30325 11.173C8.44166 11.173 8.85689 10.8962 8.85689 10.481C8.85689 9.5121 7.61121 9.09688 7.61121 8.26643C7.61121 6.88234 9.68734 6.88234 9.68734 7.15916C9.27211 8.26643 9.96415 9.78892 12.0403 9.92733V9.65051C10.3794 9.5121 9.54893 7.71279 10.933 6.46712C10.241 4.25259 9.1337 6.46712 8.30325 7.15916C7.74962 7.43598 6.36554 7.15916 6.22713 7.8512C6.08872 8.82006 7.61121 8.82006 6.91917 10.7578ZM12.5939 14.3564C13.286 13.8028 14.1164 13.8028 14.67 13.9412C14.3932 13.5259 13.5628 13.2491 13.286 13.1107C13.1475 13.2491 12.5939 13.8028 12.5939 14.3564ZM20.8984 2.17646L19.9296 0.930786L18.9607 2.17646L19.9296 3.42214L20.8984 2.17646ZM26.4347 5.63667L25.7427 4.80622L25.0507 5.63667L25.7427 6.46712L26.4347 5.63667ZM32.1095 30.1349L31.279 29.1661L30.4486 30.1349L31.279 30.9654L32.1095 30.1349ZM14.8084 5.63667L14.1164 4.80622L13.4244 5.63667L14.1164 6.46712L14.8084 5.63667ZM12.8707 9.78892H15.5005C17.715 9.78892 18.6839 8.40484 18.9607 7.29757H21.1752C21.452 8.40484 22.4209 9.78892 24.6354 9.78892H27.2652C27.2652 9.78892 27.6804 9.23528 27.8188 8.82006C28.2341 7.71279 27.6804 7.15916 26.9884 7.15916L26.0195 7.98961L25.0507 7.15916C24.3586 7.15916 23.805 7.71279 24.2202 8.82006C24.2202 8.95847 24.3586 9.09688 24.497 9.37369C23.5282 9.23528 22.4209 8.68165 22.1441 7.29757C22.1441 7.29757 22.8361 6.1903 22.9745 5.77508C23.3898 4.25259 22.5593 3.69895 21.452 3.69895L19.9296 5.35985L18.5455 3.69895C17.4382 3.69895 16.6078 4.39099 17.2998 5.91349C17.2998 6.32871 17.9918 7.29757 17.9918 7.29757C17.715 8.68165 16.6078 9.23528 15.6389 9.37369C15.7773 9.23528 15.9157 8.95847 15.9157 8.82006C16.3309 7.71279 15.7773 7.15916 15.0853 7.15916L14.1164 7.98961L13.1475 7.29757C12.4555 7.29757 11.9019 7.8512 12.3171 8.95847C12.4555 9.23529 12.8707 9.78892 12.8707 9.78892ZM39.5835 17.8166C39.0299 18.0934 36.1233 19.4775 32.3863 18.9239C32.3863 18.7855 32.5247 18.5086 32.5247 18.3702C35.0161 18.0934 37.0922 17.6782 38.3379 16.9862C39.8603 16.1557 40.414 14.218 39.7219 12.6955H39.5835C39.1683 13.1107 36.677 15.8789 32.5247 16.8477C32.5247 16.5709 32.5247 16.4325 32.5247 16.1557C34.4624 15.0484 36.4001 13.8028 37.369 12.5571C38.7531 10.7578 38.6147 8.54324 37.369 7.43598C36.9538 8.12802 33.0783 14.3564 28.7877 17.1246C28.7877 17.1246 28.6493 17.1246 28.6493 17.263C28.5109 17.4014 28.5109 17.5398 28.6493 17.5398C29.2029 17.955 29.4797 18.6471 29.4797 19.3391C29.4797 20.5848 28.5109 21.5536 27.4036 21.692C26.85 21.8304 25.8811 21.8304 25.0507 21.5536H24.9123V25.2906C24.9123 25.2906 25.0507 25.4291 25.0507 25.2906C25.6043 23.9066 27.1268 23.6297 27.8188 23.6297C28.0956 25.1522 28.5109 26.3979 29.0645 26.9515C30.0334 28.0588 31.5559 28.0588 32.1095 27.2284C31.6943 26.9515 29.4797 25.7059 29.0645 23.4913C29.2029 23.4913 29.3413 23.3529 29.6181 23.2145C30.3102 24.4602 31.4174 25.4291 32.2479 25.8443C33.632 26.5363 34.8777 26.1211 35.5697 25.1522V25.0138C34.7392 24.8754 31.9711 24.1834 30.8638 22.3841C31.0022 22.2457 31.1406 22.1073 31.279 21.9688C32.5247 22.9377 34.1856 23.6297 35.2929 23.7682C36.677 23.9066 38.3379 23.4913 38.3379 21.8304C37.7842 21.8304 34.4624 21.9688 32.1095 20.5848C32.2479 20.4464 32.2479 20.3079 32.3863 20.1695C32.3863 20.1695 35.9849 21 37.6458 20.7232C38.8915 20.7232 39.8603 19.4775 39.5835 17.8166ZM8.02644 20.4464C8.16485 20.5848 8.16485 20.7232 8.30325 20.8616C5.95031 22.2457 2.62851 22.1073 2.07488 22.1073C2.07488 23.7682 3.73578 24.1834 5.11986 24.045C6.36554 23.9066 8.02644 23.0761 9.1337 22.2457C9.27211 22.3841 9.41052 22.5225 9.54893 22.6609C8.44166 24.4602 5.8119 25.2906 4.84305 25.2906C4.84305 25.2906 4.84305 25.2907 4.84305 25.4291C5.39668 26.3979 6.64235 26.6747 8.16485 26.1211C8.9953 25.7059 10.1026 24.737 10.7946 23.4913C10.933 23.6297 11.0714 23.6297 11.3482 23.7682C10.933 25.9827 8.71848 27.3668 8.30325 27.5052C8.9953 28.1972 10.5178 28.1972 11.3482 27.2284C11.9019 26.5363 12.3171 25.2906 12.5939 23.9066C13.286 23.9066 14.8084 24.1834 15.3621 25.5675H15.5005V21.8304C15.5005 21.8304 15.5005 21.8304 15.3621 21.8304C14.5316 22.1073 13.5628 22.1073 13.0091 21.9688C11.7635 21.692 10.933 20.7232 10.933 19.6159C10.933 18.9239 11.2098 18.3702 11.7635 17.8166C11.9019 17.6782 11.9019 17.5398 11.7635 17.5398C11.7635 17.5398 11.6251 17.5398 11.6251 17.4014C7.3344 14.6332 3.45896 8.40484 3.04374 7.71279C3.04374 7.71279 3.04374 7.71279 2.90533 7.71279C1.65966 8.82006 1.52125 11.173 2.90533 12.8339C3.87419 13.9412 5.6735 15.3253 7.74962 16.4325C7.74962 16.5709 7.74962 16.8477 7.74962 17.1246C3.73578 16.2941 1.10602 13.5259 0.690798 12.9723H0.552389C-0.139652 14.4948 0.413981 16.4325 1.93647 17.263C3.18215 17.955 5.25827 18.3702 7.74962 18.6471C7.74962 18.7855 7.74962 19.0623 7.88803 19.2007C4.15101 19.7543 1.24443 18.3702 0.690798 18.0934H0.552389C0.413981 19.6159 1.38284 20.8616 3.04374 21.1384C4.42782 21.2768 8.02644 20.4464 8.02644 20.4464ZM31.279 32.0727L30.0334 31.1038C29.4797 31.3806 29.2029 31.9342 28.9261 32.4879C28.0956 32.6263 26.0195 32.0727 26.1579 31.7958C28.5109 28.474 26.7116 26.5363 24.497 26.6747V28.8893C24.497 29.5813 23.9434 30.1349 23.1129 30.1349H21.5905C20.4832 30.1349 19.7911 31.2422 19.7911 31.2422C19.7911 31.2422 19.0991 30.1349 17.9918 30.1349H16.4693C15.6389 30.1349 15.0853 29.5813 15.0853 28.8893V26.6747C12.8707 26.5363 11.2098 28.474 13.4244 31.7958C13.5628 32.0727 11.4866 32.6263 10.3794 32.4879C10.1026 32.2111 9.68734 32.0727 9.27211 32.0727C9.1337 32.0727 8.85689 32.0727 8.71848 32.2111C8.71848 32.2111 4.70464 28.3356 4.56623 28.3356V28.1972C5.25827 27.6436 4.98145 27.2284 4.70464 27.2284C4.98145 26.9515 4.98145 25.5675 3.59737 25.2906C3.59737 25.5675 3.59737 26.1211 3.59737 26.1211C3.59737 26.1211 2.49011 25.5675 1.93647 25.9827C1.38284 26.5363 2.07488 27.6436 2.07488 27.6436C2.07488 27.6436 1.52125 27.6436 1.24443 27.6436C1.65966 29.0277 3.04374 28.8893 3.32056 28.6124C3.32056 28.8893 3.73578 29.1661 4.15101 28.8893L4.28941 28.7509L8.30325 32.4879C8.16485 32.7647 8.02644 33.0415 8.16485 33.4567C8.30326 34.1488 8.71848 34.564 9.27211 34.7024C9.68734 34.8408 10.1026 34.7024 10.3794 34.564L11.4866 35.5329C11.6251 35.6713 11.7635 35.6713 11.9019 35.6713C12.1787 35.6713 12.3171 35.3945 12.3171 35.256C12.3171 35.1176 12.3171 35.1176 12.1787 34.9792L11.0714 34.0104C11.9019 33.4567 13.5628 33.0415 14.8084 33.0415C15.0853 33.0415 15.0853 32.9031 15.0853 32.6263C14.5316 31.2422 15.7773 30.1349 17.1614 30.9654C17.715 31.3806 18.4071 32.0727 18.8223 33.3183C16.6078 33.872 13.8396 35.2561 13.286 36.9169C13.0091 37.4706 13.8396 38.4394 14.67 38.5779C15.0853 36.2249 17.715 34.4256 18.9607 34.1488C18.9607 34.2872 18.9607 34.2872 19.0991 34.4256C17.5766 35.1176 16.1925 36.5017 15.7773 38.301C15.6389 39.1315 16.4693 39.8235 17.1614 39.9619H17.2998C17.4382 37.7474 18.4071 35.9481 19.2375 35.1176C19.2375 35.2561 19.2375 35.3945 19.2375 35.6713C19.2375 35.6713 18.4071 38.1626 18.4071 39.9619C18.4071 40.7924 19.6527 41.346 19.7911 41.4844C20.068 41.346 21.3136 40.7924 21.3136 39.9619C21.3136 38.1626 20.4832 35.6713 20.4832 35.6713C20.4832 35.5329 20.4832 35.3945 20.4832 35.1176C21.3136 35.9481 22.2825 37.8858 22.4209 39.9619C22.4209 39.9619 22.4209 39.9619 22.5593 39.9619C23.2514 39.8235 24.2202 38.9931 23.9434 38.301C23.5282 36.6401 22.1441 35.1176 20.6216 34.4256C20.6216 34.2872 20.6216 34.2872 20.76 34.1488C22.1441 34.4256 24.6354 36.2249 25.0507 38.5779C25.8811 38.4394 26.5732 37.609 26.4347 36.9169C25.8811 35.2561 23.1129 33.872 20.8984 33.3183C21.3136 32.0727 22.0057 31.3806 22.5593 30.9654C23.9434 30.1349 25.1891 31.1038 24.6354 32.6263C24.497 32.7647 24.6354 33.0415 24.9123 33.0415C26.4347 33.0415 28.2341 33.5951 29.0645 34.2872C29.4797 34.9792 30.4486 35.3945 31.4174 35.3945C32.5247 35.256 33.4936 34.4256 33.4936 33.4567C33.632 32.4879 33.0783 31.7958 32.3863 31.2422L31.279 32.0727ZM21.7289 25.4291C22.1441 25.2907 22.9745 25.4291 22.8361 26.1211C22.8361 26.2595 22.9745 26.2595 23.1129 26.1211C23.2514 25.1522 22.5593 24.8754 21.8673 25.0138C21.7289 24.737 21.7289 24.3218 21.5905 24.045C21.5905 23.7682 21.452 23.3529 21.7289 23.3529C21.8673 23.3529 21.8673 23.7682 21.8673 23.9066C21.8673 24.045 21.8673 24.1834 22.0057 24.1834C22.1441 24.1834 22.1441 24.045 22.2825 24.045C22.6977 23.6298 22.8361 22.9377 22.2825 22.5225C21.8673 22.2457 20.8984 22.3841 20.6216 22.7993C20.6216 22.6609 20.3448 22.3841 20.3448 22.2457C20.2064 22.1073 20.2064 22.1073 20.3448 21.9688C20.3448 21.9688 20.6216 21.692 20.6216 21.5536C20.6216 21.4152 20.4832 21.2768 20.2064 21.2768C19.9296 21.2768 19.7911 21.4152 19.7911 21.692C19.7911 21.8304 19.7911 21.8304 19.7911 21.9688C19.6527 21.9688 19.2375 21.9688 19.0991 21.9688L21.7289 29.1661C22.4209 28.7509 22.9745 28.1972 22.9745 27.6436C22.9745 27.09 22.1441 27.2284 21.8673 27.6436C21.7289 26.9515 21.5905 26.3979 21.452 25.7059C21.452 25.5675 21.5905 25.5675 21.7289 25.4291ZM17.9918 20.5848L18.5455 22.1073C18.1302 22.2457 17.2998 22.5225 17.2998 23.0761C17.2998 23.6297 18.4071 24.045 18.9607 24.045C18.9607 24.1834 18.9607 24.3218 19.0991 24.4602C18.8223 24.4602 18.4071 24.5986 18.2687 24.737C17.9918 24.4602 17.4382 24.3218 17.1614 24.4602C16.8846 24.5986 16.8846 25.0138 17.1614 25.2906C17.2998 25.5675 17.4382 25.8443 17.1614 26.1211C17.8534 26.1211 17.5766 25.1522 17.8534 25.1522C17.8534 25.2906 17.8534 25.5675 17.9918 25.8443C17.9918 25.9827 17.9918 26.1211 17.9918 26.2595C17.715 26.6747 17.4382 27.5052 17.4382 28.3356C17.1614 28.3356 17.023 28.3356 17.1614 27.9204C17.1614 27.782 17.1614 27.6436 17.023 27.9204C16.8846 28.0588 16.8846 28.3356 16.8846 28.474C16.8846 29.1661 17.715 29.3045 17.9918 29.1661C18.9607 30.1349 20.76 29.8581 21.3136 29.5813L18.1302 20.7232C18.1302 20.4464 17.9918 20.4464 17.9918 20.5848ZM17.8534 27.9204C17.8534 27.5052 18.2687 26.9515 18.9607 26.2595C18.8223 26.6747 18.9607 27.3668 19.2375 27.6436C18.6839 27.6436 18.1302 27.782 17.8534 27.9204Z" fill="#FB9637"/>
</svg>
