<svg width="47" height="48" viewBox="0 0 47 48" fill="none" xmlns="http://www.w3.org/2000/svg">
<path fill-rule="evenodd" clip-rule="evenodd" d="M30.3143 1.00276L37.7982 7.65506C40.3544 9.90329 42.4486 11.7819 45.0048 14.0302C46.3907 15.2621 47.0375 16.9867 46.7295 18.5266L44.6968 28.3511C44.0193 31.708 43.465 34.4182 42.7566 37.7752C42.3562 39.5922 41.1859 41.0089 39.7384 41.5017L30.2219 44.6739C26.9882 45.7518 24.3396 46.6449 21.1058 47.7228C20.5515 47.9076 19.9971 48 19.4736 48C19.8431 45.875 20.2743 43.3188 20.4283 42.8876C20.5823 42.2716 23.6005 38.3603 24.0932 37.7444C24.9556 36.6357 25.8795 35.6193 26.8342 34.6646C27.7889 33.6483 28.6205 32.632 29.5444 31.554C31.2999 29.4598 33.0861 27.0268 34.2256 24.4706C34.6568 23.5774 35.242 22.3147 35.7655 21.4832C35.9811 21.1444 36.3199 20.8981 36.3507 20.5285C36.1659 20.3437 36.0735 20.3129 35.9503 20.1589C36.2583 18.9886 37.1514 18.4958 37.7058 17.5719C37.9522 17.0483 38.0446 16.2476 38.2602 15.9088C38.5681 15.4777 39.0301 15.2005 39.3689 14.8001C39.3689 14.2766 39.3072 14.4613 39.1533 14.1842C38.9377 13.8146 39.1841 13.8762 39.2149 13.5066C39.0609 13.2294 38.8145 12.9523 38.5989 12.7059C38.2909 12.4287 38.0446 12.2747 37.5518 12.3363C37.059 12.3671 35.4884 12.6135 35.2112 12.7983C34.626 13.1986 34.5336 14.4921 34.472 15.3545C34.4104 16.5248 34.9956 16.5864 34.164 17.8491L31.6078 21.4524C31.3306 21.822 29.0824 23.8238 28.4973 24.3166L26.9882 25.8565C25.5407 27.3348 25.6947 26.9344 23.97 28.9054L22.3994 30.2913C21.3214 31.1537 19.9047 31.9852 18.4264 32.17C17.9953 32.2316 17.6257 32.2008 17.1945 32.2932C16.671 32.4472 16.6094 32.6012 16.209 32.786C15.6854 33.0323 15.5623 32.8783 15.0387 32.9707C14.5767 33.0323 14.2071 33.2479 13.7452 33.0631C13.622 32.3856 14.084 31.0921 14.2996 30.5069C14.4843 30.5685 14.9155 31.1845 15.593 29.6446C15.7162 29.3366 15.8086 28.9362 15.747 28.5975C15.593 28.1663 15.3775 28.2279 15.1311 27.9507C15.1311 26.996 15.1927 25.8565 15.2543 24.9018C15.3159 24.3474 15.0387 23.6082 14.7307 23.1771C14.2996 22.5919 14.6999 22.4995 14.1456 22.1608C13.4372 21.7912 13.2524 21.2984 12.8829 20.9596C12.7597 20.8057 12.5441 20.7441 12.4209 20.6209C12.1437 20.2821 12.4825 20.4977 12.0205 20.1897C11.6509 19.9741 11.2814 19.7277 10.8194 19.7893C10.4498 19.8201 10.4499 19.9125 10.2651 19.9741C10.0187 20.0665 9.86471 20.0357 9.61832 20.0973C9.15636 20.1897 8.29402 20.8365 8.10923 20.9289C7.43168 21.2984 7.37006 20.8365 6.81571 22.0376C6.44613 22.6535 5.79938 23.639 5.73779 24.409C5.67619 24.9633 5.64539 25.3329 5.5838 25.8565C5.6146 26.1645 5.55302 27.304 5.52222 27.458L5.02946 27.5504C4.5367 28.8746 5.18344 29.583 5.55301 30.1989C5.83019 30.1989 5.70699 30.1682 5.73779 30.1682C5.89178 30.1374 5.79941 30.1066 5.95339 30.1066C6.26137 30.4761 6.16896 30.8457 6.32295 31.3077C6.47694 31.862 6.63093 32.0776 6.32295 32.6936C5.707 33.9563 6.23055 33.7715 4.04392 33.5867C3.11999 33.4943 2.13448 33.3711 1.17976 33.3711C0.225028 32.2316 -0.175334 30.7841 0.0710473 29.5214L2.10369 19.6969C2.78123 16.34 3.36637 13.6298 4.04392 10.2729C4.44429 8.4558 5.61461 7.0391 7.0621 6.54634L16.5786 3.37418C19.8123 2.29626 22.4609 1.40313 25.6947 0.32521C27.327 -0.290743 29.144 -0.0135644 30.3143 1.00276Z" fill="#FB9637"/>
</svg>
